<?xml version="1.0" standalone="no"?>
<!DOCTYPE svg PUBLIC "-//W3C//DTD SVG 20010904//EN"
 "http://www.w3.org/TR/2001/REC-SVG-20010904/DTD/svg10.dtd">
<svg version="1.0" xmlns="http://www.w3.org/2000/svg"
 width="512.000000pt" height="512.000000pt" viewBox="0 0 512.000000 512.000000"
 preserveAspectRatio="xMidYMid meet">
<metadata>
Created by potrace 1.14, written by Peter Selinger 2001-2017
</metadata>
<g transform="translate(0.000000,512.000000) scale(0.100000,-0.100000)"
fill="#000000" stroke="none">
<path d="M2117 4694 c-1 -1 -47 -4 -102 -7 -292 -17 -584 -117 -836 -287 -89
-60 -111 -78 -213 -170 -273 -249 -472 -632 -522 -1005 -3 -27 -8 -61 -10 -75
-5 -36 -5 -301 0 -326 2 -11 7 -46 10 -77 16 -149 100 -413 175 -547 13 -25
29 -54 35 -65 150 -276 448 -550 758 -695 86 -40 265 -103 323 -113 17 -3 39
-8 50 -10 130 -30 403 -42 550 -25 138 16 380 80 462 123 16 8 33 15 39 15 6
0 66 32 133 70 68 39 125 70 127 68 2 -2 275 -274 607 -605 l603 -603 227 227
227 227 -605 605 c-333 332 -605 606 -605 609 0 2 15 30 34 61 121 202 190
385 231 611 4 19 9 46 11 60 9 50 11 368 3 421 -5 30 -12 74 -15 99 -8 58 -49
217 -76 289 -22 59 -106 236 -136 286 -79 133 -160 236 -276 350 -278 274
-660 450 -1043 481 -84 6 -163 10 -166 8z"/>
</g>
</svg>
